<svg xmlns="http://www.w3.org/2000/svg" width="200px" height="200px" role="img" viewBox="21.91 0.16 355.42 246.42"><title>SigstoreCon2024_WebGraphics_logo-color.svg</title><defs><style>.cls-3{stroke-width:0;fill:#2e2f71}</style></defs><path fill="none" stroke-width="0" d="M243.21894 63.92199c.16325-21.7189-15.24028-40.89764-36.18635-45.2667-23.32876-4.86619-42.47859 8.48802-49.31867 22.1495 1.4969-1.84455 2.75062-3.60985 4.22242-5.16915 17.40389-18.43949 45.55268-20.04907 64.95682-3.74956 13.39218 11.24938 18.33525 30.06216 12.13405 46.18035-7.61808 19.8009-28.80674 31.48863-50.56019 27.80427-12.00088-2.03262-21.77047-7.90335-29.35746-17.45835 6.7362 12.66318 25.43024 24.22846 45.8116 20.55199 22.33386-4.02871 38.12981-22.69174 38.29779-45.04234z"/><path d="M257.82456 56.34491c-2.62137-5.28876-6.29619-9.23323-10.66753-12.98142-7.10291-6.0906-7.90959-9.55367-10.35801-19.0215-2.66283-10.2971-16.93527-19.23536-27.38897-17.00192-8.003 1.70984-15.81637 2.15957-23.76679.26506-.84157-.2006-1.73287-.22367-2.60403-.26304-4.22733-.19096-7.66559 1.3476-10.28985 4.70161-1.57779 2.01637-2.96278 4.16658-4.11235 6.436-3.04959 6.02026-7.72551 10.29292-13.658 13.36623-2.71048 1.40417-5.38714 2.92383-7.89513 4.65761-3.8623 2.67019-7.01842 5.96337-7.622 10.94422-.43973 3.62885.67309 6.97855 2.37889 10.05163 3.13612 5.64981 4.67895 11.58918 4.05885 17.44894 0 2.42137-.0652 4.24555.01179 6.06366.2652 6.261 1.73103 11.98987 7.2515 15.85629 2.09685 1.46859 4.32323 2.74025 6.67738 3.69918 6.90069 2.81068 12.45915 7.14703 16.25014 13.64882.50654.86882 1.24496 1.61468 1.9375 2.36035 3.14768 3.38948 7.00837 5.09744 11.67209 4.9441 3.47468-.11425 6.7964-.94255 9.9272-2.3581 9.36969-4.2366 18.8494-7.89055 29.13328-9.54051 7.2772-1.16756 12.02093-6.12969 14.54157-13.11095.82406-2.28258 1.23039-4.64899 1.57797-7.01957.69174-4.71758 2.98611-8.28632 7.15125-10.64777.9481-.53751 1.31862-1.15967 2.20194-1.80059 3.16519-2.29644 5.04743-5.38879 5.61262-9.26347.58811-4.03155-.22911-7.81906-2.02133-11.43488zm-43.84415-44.59687c.04258-.29704.385-.15306.58885-.1543 5.88431-.03611 10.35473 2.40357 13.24091 7.59493.10936.1967.16589.42661.22225.64735.02918.11406-.02246.22624-.17795.2735-.25715.03909-.47573-.08814-.65469-.27355-.39819-.41275-.80913-.81734-1.16866-1.26262-2.35475-2.91671-5.40214-4.71515-9.00369-5.64238-.84459-.21739-1.67625-.48603-2.51006-.74333-.2356-.07263-.5782-.1521-.53696-.43959zm-56.47644 36.47911c-.32246.86919-.62404 1.75122-1.02096 2.58673-2.60013 5.47321-3.08606 11.1722-1.91461 17.06854.27465 1.38265.46575 2.78237.67492 4.17727.05905.39403.18316.94888-.26451 1.09015-.46258.1459-.49254-.45373-.63712-.7498-4.17351-8.54725-3.74993-16.76852 1.79183-24.60882.20996-.29704.5053-.5404.78743-.77715.14577-.12232.34526-.12567.5231.06777.23703.34723.20482.7548.05992 1.1453zm1.60559 40.18519c7.58699 9.555 17.35658 15.42573 29.35746 17.45835 21.75345 3.68437 42.94212-8.00337 50.56019-27.80427 6.2012-16.11819 1.25813-34.93097-12.13405-46.18035-19.40413-16.29951-47.55293-14.68993-64.95682 3.74956-1.4718 1.5593-2.72552 3.3246-4.22242 5.16915 6.84008-13.66148 25.98991-27.01569 49.31867-22.1495 20.94607 4.36906 36.34959 23.5478 36.18635 45.2667-.16797 22.3506-15.96393 41.01363-38.29779 45.04234-20.38135 3.67647-39.07539-7.8888-45.8116-20.55199zm36.04196-25.00455c.02455 0 .04905-.00005.07359-.00005 0-4.86991.07199-9.74106-.01496-14.60936-.18041-10.09733 8.46659-13.3042 15.64923-10.93169 1.40275.46336 2.71772 1.09309 3.74094 2.20252.94953 1.02954 1.07662 2.28354.35311 3.30529-.69731.98458-1.61504 1.17334-3.00513.57151-1.03684-.44891-2.02945-1.01032-3.08684-1.39894-2.63454-.96815-5.62577-.12723-7.11794 1.91777-.64299.88125-.81463 1.90938-.93434 2.94814-.2312 2.00633-.14251 4.02297-.14398 6.03572-.00601 8.52229.00863 17.04459-.00679 25.56683-.00941 5.19631-2.74585 9.10944-7.60465 10.3868-4.19306 1.10231-8.25599.70282-11.65396-2.38068-1.01885-.92452-1.17953-2.25124-.58109-3.19999.64455-1.02179 1.6334-1.30965 2.85184-.78027 1.33301.57903 2.54649 1.44959 4.02995 1.65845 4.38581.61734 7.46228-1.28791 7.45315-6.05807-.00959-5.07798-.00211-10.15601-.00211-15.23399zm22.50669-5.43068c2.73649.03134 4.93763 2.24959 4.94649 4.98489.00895 2.79568-2.23454 5.03595-5.02494 5.01783-2.72759-.01771-4.94662-2.24-4.96167-4.96888-.01523-2.76113 2.29176-5.06527 5.04013-5.03384zm-39.01855 10.00222c-2.78196-.01794-4.99975-2.2968-4.95419-5.0906.04441-2.72392 2.30226-4.9318 5.02173-4.91065 2.70947.02106 4.94864 2.26441 4.9697 4.97906.02147 2.76719-2.25831 5.04013-5.03724 5.02219zm64.43159 20.41934c-2.54594 9.16469-8.31587 15.03634-17.66353 17.22798-.35416.08305-.73659.06928-1.10475.05933-.19027-.00518-.34177-.13498-.34655-.39766.05295-.41707.34737-.70071.71484-.89685.8178-.43657 1.62853-.89667 2.4798-1.25868 5.57615-2.37132 9.71983-6.314 12.75408-11.50361.71149-1.21693 1.49694-2.39114 2.26565-3.57384.21714-.33407.49224-.83161.92099-.64037.44297.19757.06768.6663-.02053.98371z" class="cls-3"/><path d="M32.59143 171.14592c-2.28858-1.70318-3.83215-4.25795-3.83215-6.52001 0-1.88956 1.38396-3.37984 3.24675-3.37984.93139 0 1.80923.45257 2.52799 1.30416 2.55477 3.67228 5.58836 5.58836 10.91105 5.58836 4.36453 0 6.9193-1.8095 6.9193-4.86986 0-2.92754-2.1295-4.17814-5.02973-4.79032l-6.9991-1.43699c-6.46672-1.33067-10.43223-4.25795-10.43223-10.77796 0-7.02561 5.72171-11.52297 14.45024-11.52297 4.8969 0 8.623 1.54357 11.23079 3.24675 2.47496 1.57009 3.88518 4.09808 3.88518 6.25383 0 1.8893-1.11778 3.35307-3.00681 3.35307-1.27791 0-2.26233-.61218-3.27353-1.57009-1.83601-2.82096-4.76355-4.81684-9.39426-4.81684-3.96498 0-6.65311 1.5966-6.65311 4.49736 0 3.08714 2.15575 3.93873 5.58888 4.68374l6.70614 1.51706c5.42875 1.22409 10.08572 3.59248 10.08572 10.77796 0 7.39812-5.77474 11.97528-14.50327 11.97528-5.66816 0-9.42104-1.33041-12.42785-3.51267zm37.90308-38.7208c2.34213 0 4.01854 1.72996 4.01854 3.99176 0 2.28884-1.6764 4.01854-4.01854 4.01854-2.34161 0-4.07156-1.72969-4.07156-4.01854 0-2.2618 1.72996-3.99176 4.07156-3.99176zm-3.29978 38.66751v-23.73792c0-1.99614 1.35719-3.37984 3.27353-3.37984 1.88904 0 3.21997 1.3837 3.21997 3.37984v23.73792c0 1.96937-1.33094 3.35307-3.21997 3.35307-1.91634 0-3.27353-1.3837-3.27353-3.35307zm13.55298 2.79418c0-2.3949 1.46324-4.20466 3.61899-5.21585-1.33041-1.06449-2.1022-2.58128-2.1022-4.39104 0-2.04917.90514-3.64577 2.95379-4.89664-1.78298-1.57009-2.7674-3.72583-2.7674-6.2806 0-5.69494 4.8696-9.31419 12.48088-9.31419 2.84773 0 5.3227.5056 7.26529 1.43725l2.63457-2.20904c.74501-.61192 1.65015-1.0112 2.50174-1.0112 1.41022 0 2.47496 1.11778 2.47496 2.34187 0 .93139-.53237 1.86279-1.43752 2.68786l-2.07542 1.8095c.71876 1.22436 1.091 2.66135 1.091 4.25795 0 5.72171-4.8171 9.31446-12.45463 9.31446-2.20878 0-4.20492-.2927-5.88132-.87837-.5854.42579-.87837.90488-.87837 1.51706 0 1.19758.95869 1.9691 2.60832 1.9691h9.42104c6.09396 0 9.42051 2.55477 9.42051 7.18548 0 5.61513-5.45553 8.7553-15.169 8.7553-8.86188 0-13.70523-2.42167-13.70523-7.0789zm13.99767 2.15575c5.37572 0 8.17043-1.17107 8.17043-3.24675 0-1.67667-1.30416-2.52825-3.99228-2.52825h-9.07452c-.39902 0-.77179-.02651-1.14455-.05303-.98442.66521-1.49002 1.5168-1.49002 2.6078 0 2.18226 2.42141 3.22024 7.53095 3.22024zm.26619-18.41575c3.61952 0 5.88132-1.75621 5.88132-4.57716 0-2.84747-2.2618-4.60394-5.88132-4.60394-3.67254 0-5.9879 1.78298-5.9879 4.60394s2.31536 4.57716 5.9879 4.57716zm22.09565 13.38602c-1.30416-1.19758-2.20878-2.87425-2.20878-4.23143 0-1.54331 1.03797-2.63457 2.66135-2.63457 1.091 0 1.86279.45231 3.16695 1.80976 2.07595 2.23529 4.39078 3.16668 7.26529 3.16668 3.08662 0 4.9494-1.19758 4.9494-3.37958 0-1.88956-1.25061-3.14043-3.80538-3.61925l-4.57716-.93166c-5.72171-1.14429-8.67603-4.09808-8.67603-8.4626 0-5.56184 4.44486-8.94169 11.41718-8.94169 3.75182 0 7.10515.93139 9.28768 2.60806 1.62338 1.22409 2.66082 2.90076 2.66082 4.49736 0 1.49028-1.11725 2.58154-2.58102 2.58154-1.14455 0-2.10272-.69198-3.40636-1.88956-1.70318-1.75647-3.83268-2.44819-6.09448-2.44819-2.79418 0-4.57716 1.1708-4.57716 3.11339 0 1.78324 1.35719 2.92754 4.04479 3.40636l4.8171.95817c5.50855 1.11778 8.22293 3.93873 8.22293 8.48938 0 5.98764-4.52413 9.5536-11.92225 9.5536-4.52413 0-8.48912-1.41048-10.64487-3.64577zm32.10208-5.48204v-15.06268h-3.99228c-1.78298 0-3.05984-1.22409-3.05984-2.95379 0-1.70318 1.27686-2.92754 3.05984-2.92754h3.99228v-5.02947c0-1.96937 1.35666-3.35333 3.273-3.35333 1.88956 0 3.21997 1.38396 3.21997 3.35333v5.02947h7.71786c1.75621 0 3.03359 1.22436 3.03359 2.92754 0 1.72969-1.27738 2.95379-3.03359 2.95379h-7.71786v14.1578c0 2.52799 1.30416 3.80538 3.29978 3.80538 1.33094 0 2.34213-.66521 3.38011-1.49002.61218-.47908 1.35719-.95817 2.34161-.95817 1.49054 0 2.55477 1.091 2.55477 2.63457 0 1.19758-.5854 2.36838-1.72943 3.40636-1.67693 1.54357-4.47111 2.63457-7.34509 2.63457-5.16309 0-8.99472-3.48616-8.99472-9.12781zm20.76471-6.30712c0-9.28768 6.51975-15.43519 15.5948-15.43519 9.1013 0 15.62105 6.14751 15.62105 15.43519 0 9.2609-6.51975 15.43493-15.62105 15.43493-9.07504 0-15.5948-6.17402-15.5948-15.43493zm15.5948 9.42077c5.21612 0 8.91491-3.80564 8.91491-9.42077s-3.6988-9.42077-8.91491-9.42077-8.91544 3.80564-8.91544 9.42077 3.69932 9.42077 8.91544 9.42077zm28.45579 2.44819c0 1.96937-1.33041 3.35307-3.21997 3.35307-1.91581 0-3.27353-1.3837-3.27353-3.35307v-23.73792c0-1.99614 1.35771-3.37984 3.27353-3.37984 1.88956 0 3.21997 1.3837 3.21997 3.37984v.3725c1.65015-2.52825 4.41755-3.93873 7.6643-3.93873 2.36891 0 4.25795.77179 5.45553 1.88956 1.14455 1.091 1.75621 2.42167 1.75621 3.85867 0 2.10246-1.19706 3.56596-3.29978 3.56596-1.11778 0-2.04917-.74501-2.63457-1.43699-.79856-.90462-1.91581-1.62338-3.40636-1.62338-3.06037 0-5.53533 3.06037-5.53533 8.19668v12.85364zm17.14572-11.94876c0-9.15459 6.06771-15.35539 14.79676-15.35539 8.70175 0 14.23761 5.72171 14.23761 13.73201 0 2.50148-1.17133 3.67228-3.45991 3.67228h-19.00115c.47935 4.57742 4.09834 7.47818 9.36748 7.47818 3.03412 0 5.24237-.90488 6.94555-2.98056.87837-.7983 1.75673-1.3039 2.87451-1.3039 1.72996 0 2.50174 1.03771 2.50174 2.63457 0 .8781-.39954 1.78298-.93139 2.58128-2.26233 3.40636-6.99962 5.05625-11.62981 5.05625-9.50031 0-15.70138-6.04093-15.70138-15.51473zm22.56712-3.19346c-.47882-4.33775-3.51241-6.86601-8.00977-6.86601-4.41808 0-7.53147 2.63457-7.98404 6.86601h15.99381zm11.21137-1.22436c0-11.78916 7.93049-19.98557 19.29359-19.98557 6.28034 0 11.23027 1.94259 14.69018 5.93435 1.38396 1.59686 2.39516 3.77912 2.39516 5.34921 0 1.86279-1.43752 3.37958-3.2205 3.37958-1.11725 0-2.23503-.5056-3.24623-1.8893-2.23555-3.83215-5.66869-5.85481-10.56506-5.85481-7.21173 0-12.24147 5.40224-12.24147 13.06654 0 7.61128 5.02973 13.01351 12.24147 13.01351 4.89638 0 8.30273-2.07568 10.56506-5.88132 1.03797-1.35719 2.12897-1.86279 3.24623-1.86279 1.78298 0 3.2205 1.49028 3.2205 3.35307 0 1.46377-.95817 3.64577-2.26233 5.16283-3.48616 4.04505-8.46234 6.14725-14.82301 6.14725-11.3631 0-19.29359-8.1699-19.29359-19.93255zm40.56442 4.49762c0-9.28768 6.52028-15.43519 15.5948-15.43519 9.1013 0 15.62157 6.14751 15.62157 15.43519 0 9.2609-6.52028 15.43493-15.62157 15.43493-9.07452 0-15.5948-6.17402-15.5948-15.43493zm15.5948 9.42077c5.21612 0 8.91544-3.80564 8.91544-9.42077s-3.69932-9.42077-8.91544-9.42077-8.91491 3.80564-8.91491 9.42077 3.6988 9.42077 8.91491 9.42077zm21.96281 2.44819v-23.73792c0-1.99614 1.35719-3.37984 3.273-3.37984 1.88956 0 3.21997 1.3837 3.21997 3.37984v.5854c1.80976-2.68786 5.10954-4.15163 9.12807-4.15163 7.21173 0 11.94903 4.49762 11.94903 12.50792v14.79623c0 1.94259-1.35719 3.35307-3.24675 3.35307-1.91581 0-3.24675-1.43699-3.24675-3.35307v-13.65194c0-5.1896-2.63457-7.69108-6.89252-7.69108-4.76355 0-7.69108 3.27326-7.69108 8.14339v13.19964c0 1.96937-1.33041 3.35307-3.21997 3.35307-1.91581 0-3.273-1.3837-3.273-3.35307z" class="cls-3" style=""/><path d="M199.95431 239.65334c-48.57553 0-97.15373-.19969-145.72433.17028-9.58798.07303-13.02046-2.3537-12.01156-9.16245.79365-5.35635 1.69782-10.53695-6.5423-13.64882-2.84489-1.07433-1.89949-3.95659-1.20015-6.10514 1.33329-4.0962 3.08789-7.41293-2.80179-11.33943-5.63976-3.75984-1.47681-8.38725 7.57175-8.3884 16.59892-.00219 33.19818.62409 49.79684.61218 58.93836-.04224 117.90175.48638 176.80462-.67789 31.52686-.62311 63.07704-.28808 94.57662-1.46271 7.71207-.28762 11.08054-.27985 9.47685 7.6563-2.27331 11.24977-7.827 21.99429-7.97698 33.60844-.09274 7.18125-7.9221 8.45222-16.23849 8.4349-48.57665-.10145-97.1539-.04978-145.73093-.04978l-.00015.35253z" class="cls-3"/><path fill="#ffead6" stroke-width="0" d="M80.28801 224.49697c-2.13951 0-3.94145-.52563-5.40739-1.57689-.45953-.33285-.81835-.71763-1.07723-1.15434s-.38872-.87343-.38872-1.31014c0-.4737.15737-.87579.47212-1.20549.31475-.32891.70504-.49416 1.17165-.49416.42885 0 .83645.17075 1.22123.51147 1.2291 1.28811 2.65727 1.93177 4.2861 1.93177.77035 0 1.3605-.13849 1.77125-.41626s.61612-.66097.61612-1.14962c0-.42885-.14006-.76012-.42176-.99382-.28091-.23291-.68851-.40524-1.22123-.51619l-3.06487-.63265c-1.42896-.28878-2.50777-.8034-3.2372-1.54385s-1.09375-1.75473-1.09375-3.04284c0-1.53204.56655-2.75956 1.69886-3.68099 1.1331-.92143 2.64311-1.38254 4.53082-1.38254 1.82082 0 3.4646.48865 4.93055 1.46594.48078.31081.84353.68143 1.08825 1.11028.24393.42963.36668.87028.36668 1.32116 0 .48157-.1377.8813-.41153 1.19998-.27383.3179-.64366.47685-1.11028.47685-.49573 0-1.04339-.22583-1.64299-.67671-.41468-.4737-.92772-.86084-1.53834-1.16064s-1.28654-.45009-2.0262-.45009c-.65153 0-1.17559.1259-1.57139.3777-.39658.2518-.59409.61061-.59409 1.07723 0 .45167.14557.78294.43829.99382s.76405.38714 1.41559.52721l2.93189.66648c.49573.11095.93874.23842 1.32667.38321.38872.144.77035.33836 1.14411.58307.37376.24393.68301.52406.92694.83802.24472.31475.44065.70504.58858 1.17165s.22269.98831.22269 1.56588c0 1.59184-.57757 2.85399-1.7327 3.78643-1.15513.93323-2.69111 1.39906-4.60872 1.39906zm22.8744-1.81532c-1.24011 1.21021-2.89255 1.81532-4.95809 1.81532s-3.71798-.60511-4.95809-1.81532-1.86017-2.81465-1.86017-4.81409v-8.15043c0-.53271.16682-.96785.49966-1.30464.33363-.33678.76248-.50517 1.28811-.50517.51855 0 .93638.16839 1.25506.50517.3179.33678.47763.77192.47763 1.30464v7.81759c0 1.02136.30137 1.84679.9049 2.47629s1.40063.94425 2.39288.94425c.99933 0 1.80037-.31475 2.4039-.94425s.9049-1.45493.9049-2.47629v-7.81759c0-.53271.15974-.96785.47763-1.30464.31868-.33678.73651-.50517 1.25506-.50517.52563 0 .9529.16839 1.2826.50517.32891.33678.49416.77192.49416 1.30464v8.15043c0 1.99945-.62006 3.60388-1.86017 4.81409zm9.016 1.74922c-.52563 0-.94976-.16839-1.27159-.50517s-.48314-.77192-.48314-1.30542v-12.6364c0-.54058.16131-.9773.48314-1.31093.32183-.33285.74596-.49966 1.27159-.49966h4.99665c1.79171 0 3.25529.49101 4.39233 1.47145 1.13625.98123 1.70437 2.27879 1.70437 3.89266 0 1.62096-.56812 2.92009-1.70437 3.89738-1.13703.9773-2.60062 1.46594-4.39233 1.46594h-3.23169v3.71955c0 .5335-.16052.96864-.48235 1.30542-.32262.33678-.74989.50517-1.2826.50517zm1.76496-8.87279h3.45359c.6594 0 1.19054-.18649 1.59342-.56104.40367-.37376.60589-.86005.60589-1.45965 0-.60747-.20223-1.09611-.60589-1.46594-.40288-.37062-.93402-.55553-1.59342-.55553h-3.45359v4.04217zm15.48488 8.87279c-.52563 0-.94976-.16839-1.27159-.50517s-.48314-.77192-.48314-1.30542v-12.6364c0-.54058.16131-.9773.48314-1.31093.32183-.33285.74596-.49966 1.27159-.49966h4.99665c1.79171 0 3.25529.49101 4.39233 1.47145 1.13625.98123 1.70437 2.27879 1.70437 3.89266 0 1.62096-.56812 2.92009-1.70437 3.89738-1.13703.9773-2.60062 1.46594-4.39233 1.46594h-3.23169v3.71955c0 .5335-.16052.96864-.48235 1.30542-.32262.33678-.74989.50517-1.2826.50517zm1.76495-8.87279h3.45359c.6594 0 1.19054-.18649 1.59342-.56104.40367-.37376.60589-.86005.60589-1.45965 0-.60747-.20223-1.09611-.60589-1.46594-.40288-.37062-.93402-.55553-1.59342-.55553h-3.45359v4.04217zm15.48488 8.60604c-.52563 0-.94976-.16682-1.27159-.49966s-.48314-.76641-.48314-1.29913v-12.6482c0-.54058.16131-.9773.48314-1.31014.32183-.33363.74596-.49966 1.27159-.49966.53271 0 .95999.16603 1.2826.49966.32183.33285.48235.76956.48235 1.31014v10.97137h6.10771c.51855 0 .94189.16131 1.27159.48314s.49416.74202.49416 1.25978c0 .51147-.16446.92772-.49416 1.24955s-.75304.48314-1.27159.48314h-7.87267zm10.94226-13.82537c-.192-.26596-.28878-.56261-.28878-.88838 0-.42885.15737-.79396.47212-1.09375s.71291-.4493 1.19369-.4493c.39265 0 .71448.10387.96628.31081s.51068.50675.77743.8994l3.70853 5.36333 3.70932-5.36333c.17783-.25888.32734-.46111.4493-.60511.12275-.14478.2998-.2817.5335-.41075.23291-.12983.48629-.19436.76012-.19436.4737 0 .86792.14951 1.18267.4493s.47212.66491.47212 1.09375c0 .33363-.09285.6295-.27777.88838l-5.07455 7.27386v5.00766c0 .54058-.16131.9773-.48314 1.31093-.32183.33285-.7491.49966-1.2826.49966-.52563 0-.94897-.16682-1.27159-.49966-.32183-.33363-.48235-.77035-.48235-1.31093v-4.99665l-5.06432-7.28487zm33.33353 14.15822c-1.56194 0-2.9555-.34937-4.18066-1.0489s-2.17649-1.68076-2.85399-2.94291-1.01585-2.7037-1.01585-4.32544c0-1.62096.33836-3.06487 1.01585-4.33016.6775-1.26608 1.62883-2.25046 2.85399-2.95392s2.61871-1.0552 4.18066-1.0552c2.71707 0 4.80465.84746 6.26351 2.54317.58465.68065.87736 1.35814.87736 2.03171 0 .46662-.16288.87028-.48865 1.21021-.32577.34072-.71842.51147-1.17716.51147-.58543 0-1.11028-.26282-1.57689-.78845-.96235-1.31093-2.24731-1.96561-3.85332-1.96561-1.31014 0-2.38187.44773-3.21516 1.34319-.83251.89625-1.24877 2.04744-1.24877 3.45359 0 1.39906.41468 2.54475 1.24326 3.43706.82936.89231 1.90266 1.33847 3.22067 1.33847.82858 0 1.55486-.16524 2.17649-.49416.62163-.3297 1.18031-.81992 1.67683-1.47145.48078-.52563 1.01428-.78845 1.59893-.78845.45875 0 .84982.16839 1.17165.50517s.48314.74202.48314 1.21572c0 .28878-.07633.61297-.22819.97179s-.35724.69009-.61612.99382c-1.49506 1.73978-3.59758 2.60927-6.30758 2.60927zm25.30034-.56577c-.32577.33285-.75146.49966-1.2771.49966s-.94897-.16682-1.27159-.49966c-.32183-.33363-.48235-.77035-.48235-1.31093v-4.82983h-6.84108v4.82983c0 .54058-.16052.9773-.48235 1.31093-.32262.33285-.74989.49966-1.2826.49966-.52563 0-.94976-.16682-1.27159-.49966-.32183-.33363-.48314-.77035-.48314-1.31093v-12.90315c0-.54058.16131-.9773.48314-1.31014.32183-.33363.74596-.49966 1.27159-.49966.53271 0 .95999.16603 1.2826.49966.32183.33285.48235.76956.48235 1.31014v4.7417h6.84108v-4.7417c0-.54058.16052-.9773.48235-1.31014.32262-.33363.74596-.49966 1.27159-.49966s.95133.16603 1.2771.49966c.32577.33285.48865.76956.48865 1.31014v12.90315c0 .54058-.16288.9773-.48865 1.31093zm6.10063.54373c-.45167 0-.84195-.16446-1.17165-.49416-.32891-.32891-.49416-.71212-.49416-1.14884 0-.3777.08577-.77035.25573-1.17716l4.48596-11.03826c.39265-.9773.84274-1.68391 1.34949-2.12062s1.17874-.65547 2.01518-.65547 1.5108.21875 2.02148.65547.96235 1.14333 1.355 2.12062l4.48596 11.03826c.16996.42885.25495.8215.25495 1.17716 0 .43671-.16446.81992-.49416 1.14884-.32891.3297-.71999.49416-1.17087.49416-.88838 0-1.47381-.3777-1.75473-1.13231l-.98831-2.55419h-7.40684l-.98831 2.55419c-.2817.75461-.86635 1.13231-1.75473 1.13231zm4.02013-7.01812h4.84163l-2.42121-6.28476-2.42042 6.28476zm16.2395 6.97406c-.52563 0-.94976-.16682-1.27159-.49966-.32183-.33363-.48314-.77035-.48314-1.31093v-12.90315c0-.54058.16131-.9773.48314-1.31014.32183-.33363.74596-.49966 1.27159-.49966.53271 0 .95999.16603 1.2826.49966.32183.33285.48235.76956.48235 1.31014v12.90315c0 .54058-.16052.9773-.48235 1.31093-.32262.33285-.74989.49966-1.2826.49966zm10.46541-.50517c-.32655.33678-.75146.50517-1.2771.50517s-.94976-.16839-1.27159-.50517-.48314-.77192-.48314-1.30542v-12.59233c0-.65153.17783-1.16772.53271-1.54935.35567-.38085.83645-.57127 1.44391-.57127.42176 0 .78845.10701 1.09926.32183s.68458.61848 1.12129 1.21021l6.24069 8.81692v-8.53915c0-.53271.16288-.96785.48865-1.30464s.74753-.50517 1.26608-.50517c.52563 0 .95133.16839 1.2771.50517s.48865.77192.48865 1.30464v12.58132c0 .64445-.17783 1.16064-.53271 1.54935-.35567.38872-.82228.58307-1.39985.58307-.40681 0-.7735-.1078-1.09926-.32262-.32577-.21403-.68065-.58071-1.06543-1.09926l-6.34141-8.70597v8.31725c0 .5335-.16288.96864-.48786 1.30542zm26.13757.23842c-.52563 0-.94976-.16682-1.27159-.49966s-.48314-.76641-.48314-1.29913v-12.38145c0-.54058.16131-.9773.48314-1.31093.32183-.33285.74596-.49966 1.27159-.49966h5.14143c1.53204 0 2.88704.33757 4.0642 1.01113s2.08757 1.61545 2.73124 2.82566c.64445 1.21021.96628 2.59668.96628 4.15863 0 2.36928-.71448 4.29397-2.14344 5.77486-1.42818 1.48011-3.30172 2.22056-5.61828 2.22056h-5.14143zm1.76496-3.43156h3.36467c1.19998 0 2.17334-.4257 2.92087-1.2771.74753-.85061 1.12129-1.94672 1.12129-3.28677 0-1.33218-.37376-2.42593-1.12129-3.28126s-1.72089-1.2826-2.92087-1.2826h-3.36467v9.12773zm15.52894 3.74237c-.45167 0-.84195-.16446-1.17165-.49416-.32891-.32891-.49416-.71212-.49416-1.14884 0-.3777.08577-.77035.25573-1.17716l4.48596-11.03826c.39265-.9773.84274-1.68391 1.34949-2.12062s1.17874-.65547 2.01518-.65547 1.5108.21875 2.02148.65547.96235 1.14333 1.355 2.12062l4.48596 11.03826c.16996.42885.25495.8215.25495 1.17716 0 .43671-.16446.81992-.49416 1.14884-.32891.3297-.71999.49416-1.17087.49416-.88838 0-1.47381-.3777-1.75473-1.13231l-.98831-2.55419h-7.40684l-.98831 2.55419c-.2817.75461-.86635 1.13231-1.75473 1.13231zm4.02014-7.01812h4.84163l-2.42121-6.28476-2.42042 6.28476zm11.85267-7.11806c-.192-.26596-.28878-.56261-.28878-.88838 0-.42885.15737-.79396.47212-1.09375s.71291-.4493 1.19369-.4493c.39265 0 .71448.10387.96628.31081s.51068.50675.77743.8994l3.70853 5.36333 3.70932-5.36333c.17783-.25888.32734-.46111.4493-.60511.12275-.14478.2998-.2817.5335-.41075.23291-.12983.48629-.19436.76012-.19436.4737 0 .86792.14951 1.18267.4493s.47212.66491.47212 1.09375c0 .33363-.09285.6295-.27777.88838l-5.07455 7.27386v5.00766c0 .54058-.16131.9773-.48314 1.31093-.32183.33285-.7491.49966-1.2826.49966-.52563 0-.94897-.16682-1.27159-.49966-.32183-.33363-.48235-.77035-.48235-1.31093v-4.99665l-5.06432-7.28487z"/></svg>