<?xml version="1.0" encoding="utf-8"?>
<!-- Generator: Adobe Illustrator 26.4.1, SVG Export Plug-In . SVG Version: 6.00 Build 0)  -->
<svg version="1.1" id="a" xmlns="http://www.w3.org/2000/svg" xmlns:xlink="http://www.w3.org/1999/xlink" x="0px" y="0px"
	 width="120px" height="30.3px" viewBox="0 0 120 30.3" style="enable-background:new 0 0 120 30.3;" xml:space="preserve">
<g>
	<path fill="#2F2E71" d="M57.7,18c0.9,0,1.9-0.1,2.9,0.3c0.9,0.3,1.5,0.9,1.7,2c0.1,1-0.2,1.9-1.1,2.5c-1.1,0.8-2.3,0.9-3.6,1
		c-1.4,0-2.9,0-4.3-0.6c-1.6-0.7-1.8-2.6-0.4-3.6c0.3-0.2,0.2-0.3,0.1-0.5c-0.7-0.8-0.7-2.2,0.3-2.8c0.3-0.2,0.2-0.3,0-0.6
		c-1.4-1.6-0.7-4.1,1.3-4.8c1.6-0.6,3.2-0.6,4.8-0.1c0.2,0.1,0.3,0.1,0.5-0.1c0.3-0.3,0.6-0.5,0.9-0.7c0.5-0.3,1.1-0.3,1.4,0
		c0.3,0.4,0.3,0.9-0.2,1.3c-0.7,0.5-0.8,1-0.6,1.9c0.4,1.5-0.6,2.9-2.1,3.4c-1.3,0.5-2.7,0.5-4,0.2c-0.3-0.1-0.5-0.1-0.6,0.2
		c-0.1,0.3-0.1,0.6,0.2,0.8c0.2,0.1,0.5,0.2,0.8,0.2C56.3,18,57,18,57.7,18L57.7,18z M57.1,15.3c0.3,0,0.5,0,0.7-0.1
		c0.8-0.2,1.3-0.7,1.4-1.4c0.1-0.7-0.3-1.3-0.9-1.6c-0.8-0.3-1.6-0.3-2.4,0c-1,0.4-1.2,1.7-0.6,2.4C55.8,15.2,56.5,15.3,57.1,15.3z
		 M56.9,19.9L56.9,19.9c-0.6,0-1.2,0-1.8,0c-0.4,0-0.6,0.2-0.7,0.5c-0.3,0.7,0.1,1.2,0.9,1.4c1.2,0.2,2.5,0.2,3.7-0.1
		c0.2-0.1,0.4-0.2,0.6-0.3c0.5-0.3,0.4-1.1-0.1-1.3c-0.2-0.1-0.5-0.2-0.7-0.2C58.1,19.9,57.5,19.9,56.9,19.9L56.9,19.9z"/>
	<path fill="#2F2E71" d="M115.5,16.6c-1.1,0-2.2,0-3.2,0c-0.3,0-0.3,0.1-0.3,0.4c0.2,1.2,1.3,2.1,2.8,2.3c1.1,0.1,2.1-0.1,2.9-0.9
		c0.2-0.2,0.4-0.3,0.6-0.4c0.4-0.2,0.8-0.2,1.1,0.1c0.4,0.3,0.4,0.7,0.3,1.1c-0.3,0.9-0.9,1.4-1.7,1.8c-2.3,1-4.5,0.9-6.5-0.6
		c-1-0.7-1.5-1.8-1.7-3c-0.3-1.7-0.2-3.3,0.8-4.7c1.3-1.8,3.1-2.4,5.2-2.1c2,0.3,3.4,1.3,4,3.2c0.2,0.6,0.3,1.2,0.2,1.8
		c-0.1,0.8-0.4,1.1-1.2,1.1C117.7,16.6,116.6,16.6,115.5,16.6L115.5,16.6z M114.8,14.7c0.8,0,1.6,0,2.4,0c0.4,0,0.4-0.1,0.4-0.5
		c-0.3-1.1-1.2-1.9-2.5-2c-1.5-0.1-2.6,0.6-3.1,1.9c-0.2,0.5-0.1,0.6,0.4,0.6C113.2,14.7,114,14.7,114.8,14.7z"/>
	<path fill="#2F2E71" d="M91.8,21.4c-3.3,0-5.5-2.2-5.6-5.5c0-3.2,2.2-5.6,5.4-5.6c3.4,0,5.7,2.2,5.8,5.5
		C97.4,19.2,95.2,21.4,91.8,21.4z M91.8,19.3c1.9,0,3.2-1.3,3.3-3.3c0.1-2-1.3-3.4-3.2-3.4c-1.8,0-3.2,1.4-3.2,3.3
		C88.6,17.8,89.9,19.3,91.8,19.3z"/>
	<path fill="#2F2E71" d="M69.2,21.4c-1.1,0-2.4-0.3-3.5-1.4c-0.3-0.4-0.6-0.8-0.7-1.3c0-0.4,0.1-0.7,0.4-0.9c0.3-0.2,0.7-0.2,1,0
		c0.3,0.2,0.6,0.4,0.8,0.6c0.9,0.9,2,1.1,3.2,0.9c0.6-0.1,1-0.5,1-1c0.1-0.5-0.2-1-0.8-1.2c-0.7-0.3-1.4-0.3-2.1-0.5
		c-0.8-0.2-1.6-0.4-2.2-0.9c-1.5-1.2-1.4-3.5,0.2-4.6c1.2-0.8,2.6-0.9,4-0.7c1,0.1,1.9,0.5,2.6,1.2c0.3,0.3,0.4,0.6,0.5,0.9
		c0.1,0.4,0,0.7-0.3,1c-0.3,0.3-0.7,0.3-1,0.1c-0.4-0.2-0.7-0.5-1.1-0.8c-0.8-0.6-1.7-0.8-2.7-0.5c-0.6,0.1-0.9,0.5-0.9,1
		c0,0.5,0.3,0.9,0.8,1.1c0.9,0.3,1.9,0.4,2.9,0.7c0.6,0.2,1.1,0.4,1.5,0.8c1.5,1.4,1.1,4.1-0.9,5.1C71.2,21.3,70.4,21.4,69.2,21.4z"
		/>
	<path fill="#2F2E71" d="M38.9,21.4c-1.5,0-3-0.3-4.1-1.5c-0.3-0.3-0.4-0.6-0.5-1c-0.1-0.4-0.1-0.8,0.3-1.1c0.4-0.2,0.9-0.2,1.3,0.1
		c0.3,0.2,0.6,0.5,0.8,0.7c0.9,0.8,1.9,0.9,3,0.7c0.6-0.1,0.9-0.5,0.9-1.1c0-0.5-0.3-1-0.8-1.2c-0.9-0.2-1.8-0.4-2.7-0.6
		c-1.1-0.3-2-0.8-2.4-2c-0.6-1.7,0.4-3.4,2.2-3.9c1.7-0.5,3.3-0.3,4.8,0.5c0.6,0.3,1,0.8,1.2,1.4c0.1,0.4,0.1,0.9-0.3,1.1
		c-0.4,0.3-0.8,0.2-1.2-0.1c-0.4-0.3-0.7-0.7-1.2-0.9c-0.8-0.4-1.5-0.5-2.4-0.3c-0.5,0.1-0.8,0.4-0.8,0.9c0,0.5,0.2,0.8,0.7,1
		c0.7,0.3,1.4,0.3,2.1,0.5c0.8,0.2,1.5,0.3,2.2,0.8c1.2,0.8,1.5,2.5,0.9,3.8c-0.7,1.4-1.9,1.8-3.3,2C39.3,21.4,39.1,21.4,38.9,21.4
		L38.9,21.4z"/>
	<path fill="#2F2E71" d="M78,15.8c0-0.9,0-1.8,0-2.6c0-0.3-0.1-0.4-0.4-0.4c-0.4,0-0.8,0-1.3,0c-0.6-0.1-0.9-0.5-0.9-1
		c0-0.5,0.4-1,0.9-1c0.4,0,0.8,0,1.3,0c0.3,0,0.4-0.1,0.4-0.4c0-0.5,0-1,0-1.5c0-0.7,0.5-1.1,1.1-1.2c0.6,0,1.1,0.4,1.2,1
		c0,0.2,0,0.4,0,0.6c0,0.4-0.2,1,0.1,1.3c0.3,0.3,0.9,0.1,1.3,0.1c0.5,0,1,0,1.6,0c0.4,0,0.7,0.3,0.8,0.8c0.1,0.4-0.1,0.8-0.4,1.1
		c-0.3,0.2-0.6,0.2-0.9,0.2c-0.7,0-1.4,0-2.1,0c-0.3,0-0.4,0-0.4,0.4c0,1.6,0,3.2,0,4.7c0,1.1,0.9,1.6,1.9,1.1
		c0.3-0.1,0.5-0.3,0.7-0.5c0.4-0.3,0.8-0.3,1.2,0c0.4,0.3,0.4,0.8,0.2,1.2c-0.3,0.7-0.9,1.1-1.5,1.3c-1.3,0.5-2.6,0.5-3.8-0.4
		c-0.7-0.6-1-1.4-1.1-2.4C78,17.5,78,16.6,78,15.8L78,15.8z"/>
	<path fill="#2F2E71" d="M102.7,11.7c0.8-1,1.8-1.4,3-1.3c0.7,0.1,1.4,0.3,1.9,0.9c0.3,0.4,0.5,0.9,0.4,1.5c-0.1,0.4-0.3,0.7-0.7,0.9
		c-0.5,0.2-0.9,0-1.3-0.3c-0.7-0.7-1.3-0.9-2.1-0.5c-0.5,0.3-0.8,0.7-1,1.3c-0.2,0.5-0.3,1.1-0.3,1.6c0,1.5,0,3,0,4.5
		c0,0.5-0.2,0.9-0.6,1.1c-0.4,0.2-0.8,0.2-1.2-0.1c-0.4-0.3-0.5-0.7-0.5-1.1c0-2.8,0-5.6,0-8.4c0-0.7,0.4-1.2,1-1.3
		c0.7-0.1,1.1,0.3,1.3,1.1C102.7,11.5,102.7,11.6,102.7,11.7L102.7,11.7z"/>
	<path fill="#2F2E71" d="M48.7,15.9c0,1.4,0,2.8,0,4.3c0,0.8-0.6,1.3-1.4,1.2c-0.5-0.1-0.9-0.5-0.9-1.1c0-2.9,0-5.8,0-8.7
		c0-0.7,0.5-1.1,1.2-1.1c0.7,0,1.1,0.4,1.2,1.2C48.7,13,48.7,14.5,48.7,15.9L48.7,15.9z"/>
	<path fill="#2F2E71" d="M49,7.7c0,0.8-0.6,1.4-1.4,1.4c-0.8,0-1.5-0.6-1.5-1.4c0-0.8,0.7-1.4,1.5-1.4C48.4,6.3,49,6.9,49,7.7z"/>
</g>
<g>
	<path style="fill:none;" d="M5.2,9.4C5.1,9.5,5.1,9.6,5,9.7C5.1,9.7,5.2,9.5,5.2,9.4z"/>
	<path style="fill:none;" d="M15.5,26.5c-0.2,0-0.5,0-0.7,0c-0.4,0-0.7-0.1-1.1-0.1c-0.7,0-1.4-0.1-2.1-0.2c-0.6-0.1-1.1-0.2-1.6-0.5
		c0,0-0.1,0-0.1,0c-0.1,0-0.2,0-0.2,0.1c0,0.1,0,0.2,0.1,0.4c0.1,0.2,0.2,0.3,0.3,0.5c0.2,0.3,0.5,0.5,1,0.5c0.3,0,0.6,0,0.9,0
		c0.1,0,0.3,0,0.4-0.1c0.4-0.1,0.7-0.2,1.1-0.2c0.1,0,0.1,0,0.2,0c0.3,0,0.6,0.1,0.9,0.1c0.4,0,0.8-0.1,1.1-0.3c0,0,0.1,0,0.1-0.1
		C15.6,26.5,15.6,26.5,15.5,26.5z"/>
	<path style="fill:none;" d="M5.3,21.8c-0.2-0.2-0.4-0.5-0.6-0.7c-0.4-0.5-0.8-1-1.1-1.5c-0.1-0.2-0.2-0.3-0.2-0.5C3.3,18.4,3.1,17.7,3,17
		c0-0.6-0.2-1.1-0.3-1.7c-0.1-0.5-0.2-1.1-0.2-1.6c0-0.4,0-0.9,0-1.3c0-0.4,0.1-0.8,0.2-1.2C3,10.4,3.3,9.7,3.7,9
		C4,8.4,4.4,7.8,4.9,7.2c0.3-0.4,0.6-0.7,0.9-1.1C5.9,6,6,5.8,6.1,5.7C5.9,5.7,5.7,5.8,5.6,5.9C5.1,6.5,4.5,7.1,3.9,7.7
		c-0.7,0.7-1.1,1.5-1.4,2.4c-0.3,0.8-0.4,1.7-0.4,2.5c0,0.7,0.1,1.5,0.2,2.2c0.1,0.5,0.1,1,0.2,1.4c0,0.5,0.1,1,0.2,1.5
		c0.2,0.9,0.5,1.8,1,2.7c0.2,0.4,0.4,0.7,0.7,1c0.2,0.2,0.4,0.3,0.6,0.5C5.1,22,5.2,22,5.2,22.1c0,0,0.1,0,0.1,0c0,0,0-0.1,0-0.1
		C5.4,21.9,5.3,21.9,5.3,21.8z"/>
	<path style="fill:none;" d="M15.7,25c-0.9,0-1.8,0-2.7-0.2c-1.7-0.3-3.3-1-4.6-2.1c-1.3-1.1-2.3-2.5-3-4.1C5,17.9,4.8,17,4.5,16.2
		c0,0.3,0,0.5,0,0.8c0,0.3,0.1,0.5,0.2,0.8c0.1,0.3,0.2,0.6,0.3,0.9c0.3,0.7,0.6,1.3,1,1.9c0.4,0.5,0.8,1,1.2,1.4
		c0.5,0.5,1.1,1,1.7,1.4c0.2,0.1,0.4,0.3,0.6,0.4c0.4,0.2,0.7,0.4,1.1,0.5c0.5,0.2,1,0.4,1.4,0.5c0.4,0.1,0.9,0.2,1.3,0.3
		c0.1,0,0.1,0,0.2,0c0.3,0,0.6,0,0.9,0c0.4,0,0.8,0.1,1.2,0c0.2,0,0.5-0.1,0.7-0.1c0.2,0,0.5,0,0.7-0.1c0.8-0.2,1.6-0.4,2.3-0.9
		c0,0,0.1-0.1,0.1-0.1c-0.2,0-0.4,0.1-0.5,0.2C17.9,24.7,16.8,25,15.7,25z"/>
	<path style="fill:none;" d="M14.9,0.9C14.9,0.9,15,0.9,14.9,0.9c0.3,0,0.4,0,0.6,0.1c1.1,0.2,2.2,0.4,3.2,0.7c0.7,0.2,1.4,0.6,2,1.1
		c0.4,0.3,0.7,0.8,1.1,1.1c0,0.1,0.1,0.1,0.2,0.1C22,3.9,22,3.8,22,3.7c0,0,0,0,0-0.1c-0.2-0.6-0.5-1.1-0.9-1.4
		c-0.5-0.4-1.1-0.8-1.7-1c-1-0.4-2.1-0.5-3.1-0.5c-0.1,0-0.2,0-0.3,0c-0.3,0-0.7,0-1,0.1C14.9,0.8,14.8,0.8,14.9,0.9
		C14.8,0.9,14.8,0.9,14.9,0.9L14.9,0.9z"/>
	<path style="fill:none;" d="M7.4,24.3c-0.3-0.1-0.5-0.3-0.7-0.5c-0.2-0.2-0.4-0.1-0.5,0.1c-0.1,0.1,0,0.3,0,0.4c0,0.4,0.3,0.6,0.7,0.5
		c0.4-0.1,0.7-0.2,1.1-0.2c0.1,0,0.1,0,0.2-0.1c-0.1-0.1-0.2-0.1-0.4-0.2C7.7,24.4,7.5,24.4,7.4,24.3L7.4,24.3z"/>
	<path style="fill:none;" d="M26.5,10.6c0.2,0.8,0.4,1.6,0.4,2.4c0.1,0.8,0,1.7,0,2.5c0.2-0.8,0.3-1.7,0.2-2.5
		C27.1,12.1,26.9,11.3,26.5,10.6z"/>
	<path style="fill:none;" d="M27,9.2c-0.6-1.1-1.4-2-2.4-2.7c0,0-0.1-0.1-0.1-0.1c0.1,0.1,0.1,0.1,0.2,0.2c0.5,0.6,0.9,1.2,1.4,1.8
		c0.5,0.7,1,1.5,1.3,2.3c0.3,0.8,0.4,1.6,0.4,2.4c0,0.1,0,0.3,0,0.4c0,0.4,0,0.9-0.1,1.3c-0.1,0.4-0.1,0.7-0.2,1.1c0,0,0,0,0,0
		c0.5-1.2,0.7-2.4,0.5-3.7C27.8,11.2,27.5,10.2,27,9.2z"/>
	<path style="fill:none;" d="M25.1,11c-0.2-0.6-0.4-1.2-0.7-1.8c-0.5-1-1.2-1.8-2-2.6c-0.6-0.6-1.2-1.1-1.9-1.5c-0.5-0.3-1.1-0.5-1.7-0.8
		C18.2,4.2,17.6,4,17,3.8c-0.4-0.1-0.7-0.2-1.1-0.3c-1.9-0.2-3.6,0.1-5.3,0.9c0,0-0.1,0-0.1,0c0.1,0,0.1-0.1,0.2,0
		c0,0.1,0.1,0.1,0.1,0.2c-0.1,0.1,0,0.1,0,0.1c0,0,0.1,0,0.1,0c0.6-0.2,1.1-0.4,1.7-0.5c0.3,0,0.6-0.1,1-0.2c0.3,0,0.6,0,0.9,0
		c0.9-0.1,1.8,0.1,2.7,0.3c0.4,0.1,0.8,0.2,1.2,0.4c0.9,0.4,1.8,0.8,2.6,1.4c0.6,0.4,1.1,1,1.7,1.5c0,0,0.1,0.1,0.2,0.1
		c0.1,0,0.3,0,0.4,0.2c0.4,0.5,0.7,1,0.9,1.6c0.2,0.5,0.4,1,0.6,1.5c0.4,1.1,0.6,2.3,0.6,3.4c0,0.3,0,0.6,0,1l0,0
		c0-0.4,0.1-0.8,0.1-1.2c0-0.3,0-0.6,0-0.9C25.5,12.4,25.4,11.7,25.1,11z"/>
	<path style="fill:none;" d="M25.3,21.1c-0.3,0.5-0.5,1-0.9,1.5c-0.6,0.8-1.2,1.6-1.9,2.4c-0.3,0.3-0.5,0.5-0.8,0.7
		c-0.2,0.1-0.4,0.3-0.5,0.4c-0.1,0.2-0.1,0.2,0.1,0.3c0,0,0.1,0,0.1,0c0.3,0,0.5,0,0.8,0c0.4-0.1,0.8-0.2,1.2-0.3
		c0.3-0.1,0.6-0.3,0.9-0.5c0.3-0.2,0.5-0.5,0.6-0.8c0.1-0.3,0.3-0.7,0.4-1.1c0.1-0.4,0.2-0.8,0.3-1.3c0.1-0.4,0.1-0.8,0.2-1.2
		c0-0.1,0-0.2-0.1-0.4C25.4,20.9,25.4,21,25.3,21.1z"/>
	<path fill="#2F2E71" d="M27.8,10.9c-0.3-1.2-0.9-2.2-1.7-3.1c-0.6-0.7-1.3-1.3-2-2c-0.7-0.6-1.2-1.3-1.5-2.1c-0.2-0.4-0.4-0.8-0.7-1.2
		c-0.5-0.7-1.3-1.2-2.1-1.6C18.5,0.2,17.1,0,15.6,0c-0.8,0-1.6,0.1-2.4,0.3C12,0.5,10.9,1,9.8,1.6C9.1,2,8.5,2.5,7.9,3
		c-1,0.8-2,1.6-2.8,2.6C4.5,6.4,3.7,6.9,2.9,7.4c-0.8,0.4-1.4,1-2,1.6C0.3,9.6,0,10.3,0,11.1c0,0.6,0.1,1.2,0.2,1.7
		c0.2,0.9,0.6,1.7,0.9,2.6c0.2,0.5,0.3,1,0.3,1.5c0,0.5,0,1-0.1,1.5c-0.1,1.1,0,2.3,0.2,3.4c0.2,1,0.8,1.8,1.8,2.2
		c0.1,0.1,0.3,0.1,0.4,0.1c0.2,0.1,0.2,0.2,0.1,0.3c0,0,0,0-0.1,0.1c-0.4,0.5-0.7,1.1-0.6,1.8c0.1,1.1,1.3,1.8,2.3,1.3
		C6,27.4,6.6,27.6,6.8,28c0.1,0.1,0.1,0.2,0.2,0.3c0.2,0.5,0.4,0.9,0.7,1.3c0.4,0.5,0.9,0.7,1.6,0.6c0.4-0.1,0.8-0.2,1.2-0.4
		c0.7-0.4,1.3-0.9,2-1.5c0.2-0.2,0.4-0.2,0.7-0.2c0.4,0,0.8,0.2,1.2,0.5c0.6,0.4,1.2,0.7,1.9,0.9c1.3,0.4,2.5,0.5,3.8,0.2
		c1.3-0.3,2.4-0.9,3.4-1.6c0.7-0.5,1.2-1,1.6-1.7c0.4-0.7,0.6-1.4,0.8-2.2c0.3-1.1,0.4-2.2,0.4-3.4c0.1-1,0.2-1.9,0.5-2.8
		c0.2-0.7,0.5-1.4,0.8-2.1c0.2-0.6,0.4-1.2,0.5-1.9C28.2,12.9,28.1,11.9,27.8,10.9z M14.9,0.8c0.3-0.1,0.7-0.1,1-0.1
		c0.1,0,0.2,0,0.3,0c1.1,0,2.1,0.2,3.1,0.5c0.6,0.2,1.2,0.6,1.7,1c0.5,0.4,0.7,0.9,0.9,1.4c0,0,0,0,0,0.1c0,0.1,0,0.2-0.1,0.2
		c-0.1,0-0.1,0-0.2-0.1c-0.4-0.4-0.7-0.8-1.1-1.1c-0.6-0.5-1.2-0.9-2-1.1c-1.1-0.3-2.1-0.5-3.2-0.7c-0.2,0-0.3,0-0.5,0
		c0,0-0.1,0-0.1,0C14.8,0.9,14.8,0.9,14.9,0.8C14.8,0.8,14.9,0.8,14.9,0.8z M10.4,13.2c0.6,0,1.1,0.5,1.2,1.2c0,0.6-0.5,1.2-1.2,1.2
		c-0.6,0-1.2-0.5-1.1-1.2C9.3,13.7,9.8,13.2,10.4,13.2z M14.2,14.5L14.2,14.5c0-1.1,0-2.3,0-3.4c0-2.3,2-3.1,3.6-2.5
		c0.3,0.1,0.6,0.3,0.9,0.5c0.2,0.2,0.2,0.5,0.1,0.8c-0.2,0.2-0.4,0.3-0.7,0.1c-0.2-0.1-0.5-0.2-0.7-0.3c-0.6-0.2-1.3,0-1.6,0.4
		c-0.1,0.2-0.2,0.4-0.2,0.7c-0.1,0.5,0,0.9,0,1.4c0,2,0,3.9,0,5.9c0,1.2-0.6,2.1-1.8,2.4c-1,0.3-1.9,0.2-2.7-0.6
		c-0.2-0.2-0.3-0.5-0.1-0.7c0.1-0.2,0.4-0.3,0.7-0.2c0.3,0.1,0.6,0.3,0.9,0.4c1,0.1,1.7-0.3,1.7-1.4C14.2,16.8,14.2,15.7,14.2,14.5z
		 M5.4,22.1c0,0-0.1,0-0.1,0C5.2,22,5.1,22,5,21.9c-0.2-0.2-0.4-0.3-0.6-0.5c-0.3-0.3-0.5-0.6-0.7-1c-0.4-0.8-0.8-1.7-1-2.7
		c-0.1-0.5-0.2-1-0.2-1.5c0-0.5-0.1-1-0.2-1.4c-0.1-0.7-0.2-1.5-0.2-2.2c0-0.9,0.1-1.7,0.4-2.5c0.3-0.9,0.7-1.7,1.4-2.4
		c0.6-0.6,1.1-1.2,1.7-1.8c0.1-0.1,0.3-0.2,0.4-0.2C6,5.8,5.9,6,5.8,6.1C5.5,6.5,5.2,6.8,4.9,7.2C4.4,7.8,4,8.4,3.7,9
		C3.3,9.7,3,10.4,2.8,11.2c-0.1,0.4-0.2,0.8-0.2,1.2c0,0.4-0.1,0.8,0,1.3c0,0.6,0.1,1.1,0.2,1.6C2.9,15.9,3,16.4,3,17
		c0,0.7,0.2,1.4,0.4,2.1c0,0.2,0.2,0.3,0.2,0.5c0.3,0.6,0.6,1.1,1.1,1.5c0.2,0.2,0.4,0.5,0.6,0.7c0,0,0,0.1,0.1,0.1
		C5.4,22,5.4,22,5.4,22.1L5.4,22.1z M8,24.6c-0.4,0-0.7,0.1-1.1,0.2c-0.4,0.1-0.6-0.1-0.7-0.5c0-0.1-0.1-0.3,0-0.4
		c0.1-0.3,0.3-0.3,0.5-0.1c0.2,0.2,0.5,0.4,0.7,0.5c0.1,0.1,0.2,0.1,0.4,0.1c0.1,0,0.2,0.1,0.4,0.2C8.1,24.6,8.1,24.6,8,24.6L8,24.6
		z M15.6,26.7c-0.3,0.2-0.7,0.3-1.1,0.3c-0.3,0-0.6-0.1-0.9-0.1c-0.1,0-0.1,0-0.2,0c-0.4,0.1-0.7,0.1-1.1,0.2c-0.1,0-0.3,0-0.4,0.1
		c-0.3,0-0.6,0-0.9,0c-0.4,0-0.7-0.2-1-0.5c-0.1-0.1-0.2-0.3-0.3-0.5c-0.1-0.1-0.1-0.2-0.1-0.4c0-0.1,0.1-0.1,0.2-0.1
		c0,0,0.1,0,0.1,0c0.5,0.3,1.1,0.4,1.6,0.5c0.7,0.1,1.4,0.2,2.1,0.2c0.4,0,0.7,0.1,1.1,0.1c0.2,0,0.5,0,0.7,0c0.1,0,0.1,0,0.1,0
		C15.7,26.6,15.6,26.6,15.6,26.7z M19.3,24.2c-0.7,0.4-1.5,0.7-2.3,0.9c-0.2,0-0.5,0.1-0.7,0.1c-0.2,0-0.5,0-0.7,0.1
		c-0.4,0.1-0.8,0-1.2,0c-0.3,0-0.6-0.1-0.9,0c-0.1,0-0.1,0-0.2,0c-0.4-0.1-0.9-0.2-1.3-0.3c-0.5-0.1-1-0.3-1.4-0.5
		c-0.4-0.1-0.8-0.3-1.1-0.5c-0.2-0.1-0.4-0.3-0.6-0.4C8.3,23,7.7,22.5,7.2,22c-0.4-0.5-0.8-0.9-1.2-1.4c-0.4-0.6-0.7-1.2-1-1.9
		c-0.1-0.3-0.2-0.6-0.3-0.9c-0.1-0.3-0.2-0.5-0.2-0.8c0-0.3,0-0.5,0-0.8C4.8,17,5,17.9,5.4,18.7c0.7,1.6,1.7,3,3,4.1
		c1.4,1.1,2.9,1.8,4.6,2.1c0.9,0.2,1.8,0.2,2.7,0.2c1.1-0.1,2.2-0.3,3.2-0.8c0.2-0.1,0.3-0.2,0.5-0.2C19.4,24.2,19.4,24.2,19.3,24.2
		z M19.4,15.5c-0.6,0-1.1-0.5-1.1-1.2c0-0.6,0.5-1.2,1.2-1.2c0.6,0,1.1,0.5,1.1,1.2C20.6,15,20.1,15.6,19.4,15.5z M25.6,21.2
		c0,0.4-0.1,0.8-0.2,1.2c-0.1,0.4-0.1,0.9-0.3,1.3c-0.1,0.4-0.2,0.7-0.4,1.1c-0.1,0.3-0.3,0.6-0.6,0.8c-0.3,0.2-0.5,0.4-0.9,0.5
		c-0.4,0.2-0.7,0.3-1.2,0.3c-0.3,0-0.5,0-0.8,0c0,0-0.1,0-0.1,0c-0.2-0.1-0.2-0.1-0.1-0.3c0.1-0.2,0.3-0.3,0.5-0.4
		c0.3-0.2,0.6-0.5,0.8-0.7c0.7-0.7,1.3-1.6,1.9-2.4c0.4-0.4,0.6-1,0.9-1.5c0.1-0.1,0.1-0.2,0.2-0.3C25.6,21,25.6,21.1,25.6,21.2z
		 M10.6,4.4c1.7-0.8,3.5-1.1,5.3-0.9c0.4,0,0.8,0.1,1.1,0.3c0.6,0.2,1.2,0.4,1.8,0.6c0.6,0.2,1.2,0.5,1.7,0.8
		c0.7,0.4,1.3,0.9,1.9,1.5c0.8,0.8,1.5,1.6,2,2.6c0.3,0.6,0.5,1.2,0.7,1.8c0.2,0.7,0.4,1.5,0.4,2.2c0,0.3,0,0.6,0,0.9
		c0,0.4-0.1,0.8-0.1,1.2l0,0c0-0.3,0-0.6,0-1c0-1.2-0.3-2.3-0.6-3.4c-0.2-0.5-0.4-1-0.6-1.5c-0.2-0.6-0.5-1.1-0.9-1.6
		c-0.1-0.1-0.3-0.1-0.4-0.2c-0.1,0-0.1,0-0.2-0.1c-0.5-0.5-1.1-1-1.7-1.5c-0.8-0.6-1.7-1.1-2.6-1.4c-0.4-0.2-0.8-0.3-1.2-0.4
		c-0.9-0.2-1.8-0.4-2.7-0.3c-0.3,0-0.6,0-0.9,0c-0.3,0-0.6,0.1-1,0.2c-0.6,0.1-1.2,0.3-1.7,0.5c0,0-0.1,0-0.1,0c0,0-0.1,0,0-0.1
		c0,0,0-0.1-0.1-0.2 M26.9,15.5c-0.1-0.8,0-1.7,0-2.5c-0.1-0.8-0.2-1.6-0.4-2.4c0.5,0.7,0.6,1.6,0.7,2.4
		C27.2,13.8,27.2,14.7,26.9,15.5z M27.5,16C27.5,16,27.5,16,27.5,16c0-0.3,0.1-0.7,0.2-1.1c0.1-0.4,0.1-0.9,0.1-1.3
		c0-0.1,0-0.3,0-0.4c0-0.8-0.2-1.6-0.4-2.4C27,9.9,26.6,9.2,26,8.4c-0.5-0.6-0.9-1.2-1.4-1.8c-0.1-0.1-0.1-0.1-0.2-0.2
		c0.1,0,0.1,0,0.1,0.1c1,0.8,1.8,1.6,2.4,2.7c0.5,1,0.9,2,1,3.1C28.2,13.6,28,14.8,27.5,16z"/>
	<path style="fill:none;" d="M12.5,19.4c-0.3,0-0.6-0.2-0.9-0.4c-0.3-0.1-0.5-0.1-0.7,0.2c-0.1,0.2-0.1,0.5,0.1,0.7
		c0.8,0.7,1.7,0.8,2.7,0.6c1.1-0.3,1.8-1.2,1.8-2.4c0-2,0-3.9,0-5.9c0-0.5,0-0.9,0-1.4c0-0.2,0.1-0.5,0.2-0.7c0.3-0.5,1-0.7,1.6-0.4
		c0.2,0.1,0.5,0.2,0.7,0.3c0.3,0.1,0.5,0.1,0.7-0.1c0.2-0.2,0.1-0.5-0.1-0.8c-0.2-0.3-0.5-0.4-0.9-0.5c-1.7-0.5-3.7,0.2-3.6,2.5
		c0,1.1,0,2.3,0,3.4l0,0c0,1.2,0,2.4,0,3.5C14.2,19.1,13.5,19.6,12.5,19.4z"/>
	<path style="fill:none;" d="M19.4,13.2c-0.6,0-1.2,0.5-1.2,1.2c0,0.6,0.5,1.1,1.1,1.2c0.6,0,1.2-0.5,1.2-1.2
		C20.6,13.8,20.1,13.2,19.4,13.2z"/>
	<path style="fill:none;" d="M10.4,15.5c0.6,0,1.2-0.5,1.2-1.2c0-0.6-0.5-1.1-1.2-1.2c-0.6,0-1.2,0.5-1.2,1.1C9.2,15,9.8,15.5,10.4,15.5z"
		/>
</g>
</svg>
